<svg width="1920" height="1080" viewBox="0 0 1920 1080" fill="none" xmlns="http://www.w3.org/2000/svg">
  <defs>
    <linearGradient id="storeBg" x1="0" y1="0" x2="1920" y2="1080" gradientUnits="userSpaceOnUse">
      <stop offset="0" stop-color="#0B1622"/>
      <stop offset="0.55" stop-color="#123044"/>
      <stop offset="1" stop-color="#1A3E4D"/>
    </linearGradient>
    <radialGradient id="storeGlow" cx="0" cy="0" r="1" gradientUnits="userSpaceOnUse" gradientTransform="translate(1520 210) rotate(90) scale(360 460)">
      <stop offset="0" stop-color="#F1B94B" stop-opacity="0.42"/>
      <stop offset="1" stop-color="#F1B94B" stop-opacity="0"/>
    </radialGradient>
  </defs>

  <rect width="1920" height="1080" fill="url(#storeBg)"/>
  <rect width="1920" height="1080" fill="url(#storeGlow)"/>
  <rect y="700" width="1920" height="380" fill="#0A1218" fill-opacity="0.5"/>

  <!-- Shelves -->
  <g opacity="0.9">
    <rect x="980" y="490" width="860" height="24" rx="10" fill="#2B3F50"/>
    <rect x="980" y="610" width="860" height="24" rx="10" fill="#2B3F50"/>
    <rect x="980" y="730" width="860" height="24" rx="10" fill="#2B3F50"/>
  </g>

  <!-- Product packs -->
  <g>
    <rect x="1030" y="420" width="120" height="70" rx="10" fill="#B24A39"/>
    <rect x="1170" y="400" width="150" height="90" rx="10" fill="#D79B40"/>
    <rect x="1340" y="415" width="130" height="75" rx="10" fill="#2F6788"/>
    <rect x="1490" y="395" width="170" height="95" rx="10" fill="#7A8EA0"/>
    <rect x="1680" y="420" width="120" height="70" rx="10" fill="#B24A39"/>

    <rect x="1045" y="535" width="135" height="75" rx="10" fill="#385B73"/>
    <rect x="1200" y="525" width="110" height="85" rx="10" fill="#B24A39"/>
    <rect x="1330" y="545" width="165" height="65" rx="10" fill="#D79B40"/>
    <rect x="1515" y="530" width="135" height="80" rx="10" fill="#385B73"/>
    <rect x="1670" y="545" width="120" height="65" rx="10" fill="#7A8EA0"/>
  </g>

  <!-- Left safe area for text -->
  <rect x="0" y="0" width="980" height="1080" fill="#050A10" fill-opacity="0.42"/>
</svg>
