<svg width="1600" height="900" viewBox="0 0 1600 900" fill="none" xmlns="http://www.w3.org/2000/svg">
  <defs>
    <linearGradient id="sky" x1="800" y1="0" x2="800" y2="900" gradientUnits="userSpaceOnUse">
      <stop stop-color="#112B3A"/>
      <stop offset="0.45" stop-color="#1D7164"/>
      <stop offset="1" stop-color="#F6E7C6"/>
    </linearGradient>
    <linearGradient id="water" x1="1110" y1="355" x2="1110" y2="900" gradientUnits="userSpaceOnUse">
      <stop stop-color="#3D8E87" stop-opacity="0.8"/>
      <stop offset="1" stop-color="#0A2E33"/>
    </linearGradient>
  </defs>
  <rect width="1600" height="900" fill="url(#sky)"/>
  <circle cx="1228" cy="156" r="78" fill="#E6C36D" fill-opacity="0.88"/>
  <path d="M0 462C198 402 348 390 528 408C732 428 914 496 1118 480C1338 464 1454 392 1600 330V900H0V462Z" fill="#F1D9A6" fill-opacity="0.15"/>
  <path d="M0 512H1020V900H0V512Z" fill="url(#water)"/>
  <g opacity="0.95">
    <rect x="1046" y="204" width="62" height="320" rx="8" fill="#103741"/>
    <rect x="1128" y="132" width="90" height="392" rx="10" fill="#123E47"/>
    <path d="M1238 204H1332V524H1238V204Z" fill="#164E59"/>
    <path d="M1238 204C1238 130 1270 92 1286 74C1306 98 1332 136 1332 204H1238Z" fill="#164E59"/>
    <rect x="1360" y="168" width="84" height="356" rx="12" fill="#0D333B"/>
    <path d="M1468 254H1542V524H1468V254Z" fill="#134652"/>
    <path d="M1560 118L1588 524H1532L1560 118Z" fill="#123A45"/>
  </g>
  <g opacity="0.55">
    <rect x="1108" y="182" width="10" height="14" fill="#EFD79E"/>
    <rect x="1144" y="204" width="10" height="14" fill="#EFD79E"/>
    <rect x="1178" y="182" width="10" height="14" fill="#EFD79E"/>
    <rect x="1416" y="228" width="10" height="14" fill="#EFD79E"/>
    <rect x="1490" y="302" width="10" height="14" fill="#EFD79E"/>
  </g>
  <g opacity="0.92">
    <rect x="172" y="302" width="16" height="292" fill="#10333A"/>
    <path d="M180 302H360L472 594H434L334 366H180V302Z" fill="#16454E"/>
    <rect x="334" y="352" width="16" height="242" fill="#10333A"/>
    <path d="M342 352H538L646 594H608L512 410H342V352Z" fill="#16454E"/>
    <rect x="518" y="266" width="16" height="328" fill="#10333A"/>
    <path d="M526 266H748L876 594H836L720 330H526V266Z" fill="#16454E"/>
  </g>
  <g>
    <path d="M896 900H1600V668L1322 576L1060 624L896 718V900Z" fill="#113D45"/>
    <path d="M1600 668L1228 716L896 638V700L1228 804L1600 746V668Z" fill="#174E59"/>
    <path d="M1600 750L1230 808L896 700V760L1230 862L1600 804V750Z" fill="#0A2E33"/>
    <path d="M1600 804L1230 862L896 760V900H1600V804Z" fill="#061A1F"/>
  </g>
  <g opacity="0.96">
    <rect x="106" y="600" width="214" height="112" rx="14" fill="#0E473D"/>
    <rect x="338" y="600" width="166" height="112" rx="14" fill="#D7A74B"/>
    <rect x="522" y="600" width="212" height="112" rx="14" fill="#185F54"/>
    <rect x="752" y="600" width="154" height="112" rx="14" fill="#E6D0A1"/>
  </g>
  <path d="M0 820C250 780 530 772 816 830C966 860 1212 898 1600 836V900H0V820Z" fill="#071D22" fill-opacity="0.72"/>
</svg>
