<svg width="1600" height="900" viewBox="0 0 1600 900" fill="none" xmlns="http://www.w3.org/2000/svg">
  <defs>
    <linearGradient id="sky" x1="800" y1="0" x2="800" y2="520" gradientUnits="userSpaceOnUse">
      <stop stop-color="#0C2B36"/>
      <stop offset="0.5" stop-color="#15574D"/>
      <stop offset="1" stop-color="#EFDAB2"/>
    </linearGradient>
    <linearGradient id="water" x1="800" y1="520" x2="800" y2="900" gradientUnits="userSpaceOnUse">
      <stop stop-color="#0F4E57"/>
      <stop offset="1" stop-color="#082B32"/>
    </linearGradient>
    <linearGradient id="sand" x1="0" y1="420" x2="0" y2="720" gradientUnits="userSpaceOnUse">
      <stop stop-color="#D8BC83" stop-opacity="0.15"/>
      <stop offset="1" stop-color="#D8BC83" stop-opacity="0.45"/>
    </linearGradient>
  </defs>
  <rect width="1600" height="900" fill="url(#sky)"/>
  <rect y="520" width="1600" height="380" fill="url(#water)"/>
  <circle cx="1260" cy="165" r="88" fill="#E5C16A" fill-opacity="0.9"/>
  <path d="M0 440C210 390 365 378 560 400C770 425 930 480 1120 454C1305 430 1442 368 1600 314V520H0V440Z" fill="url(#sand)"/>
  <g opacity="0.95">
    <rect x="1040" y="198" width="38" height="260" rx="6" fill="#13333A"/>
    <rect x="1094" y="142" width="52" height="316" rx="6" fill="#143842"/>
    <rect x="1164" y="238" width="38" height="220" rx="6" fill="#13333A"/>
    <rect x="1220" y="112" width="70" height="346" rx="8" fill="#0F2D34"/>
    <rect x="1310" y="165" width="46" height="293" rx="6" fill="#153C45"/>
    <rect x="1380" y="218" width="35" height="240" rx="6" fill="#153C45"/>
  </g>
  <g opacity="0.9">
    <rect x="150" y="180" width="18" height="390" fill="#12343B"/>
    <path d="M160 180L360 180L510 520H470L330 248H160V180Z" fill="#173F48"/>
    <rect x="420" y="150" width="18" height="420" fill="#12343B"/>
    <path d="M430 150L650 150L790 520H750L620 218H430V150Z" fill="#173F48"/>
    <rect x="690" y="210" width="18" height="360" fill="#12343B"/>
    <path d="M700 210L950 210L1090 520H1048L910 270H700V210Z" fill="#173F48"/>
  </g>
  <g opacity="0.4">
    <path d="M0 602C198 578 408 576 630 602C875 630 1112 676 1600 628V900H0V602Z" fill="#0A2A30"/>
  </g>
  <g>
    <rect x="88" y="544" width="284" height="120" rx="12" fill="#0E403B"/>
    <rect x="390" y="544" width="246" height="120" rx="12" fill="#1B6A5D"/>
    <rect x="654" y="544" width="214" height="120" rx="12" fill="#D7A94B"/>
    <rect x="886" y="544" width="274" height="120" rx="12" fill="#0C5A4B"/>
    <rect x="1178" y="544" width="222" height="120" rx="12" fill="#B78533"/>
    <rect x="148" y="680" width="192" height="92" rx="10" fill="#D8BC83"/>
    <rect x="358" y="680" width="224" height="92" rx="10" fill="#15574D"/>
    <rect x="602" y="680" width="198" height="92" rx="10" fill="#0E403B"/>
    <rect x="822" y="680" width="232" height="92" rx="10" fill="#D7A94B"/>
    <rect x="1076" y="680" width="176" height="92" rx="10" fill="#17483E"/>
    <rect x="1270" y="680" width="182" height="92" rx="10" fill="#E6D1A0"/>
  </g>
  <g opacity="0.9">
    <path d="M1178 470L1308 470L1364 520H1116L1178 470Z" fill="#E8E2D2"/>
    <rect x="1142" y="520" width="220" height="98" rx="14" fill="#F7F1E4"/>
    <rect x="1280" y="520" width="82" height="56" rx="10" fill="#153B45"/>
    <rect x="1312" y="530" width="20" height="20" rx="4" fill="#E7C976"/>
    <circle cx="1188" cy="625" r="20" fill="#0E2C32"/>
    <circle cx="1326" cy="625" r="20" fill="#0E2C32"/>
  </g>
  <path d="M0 760C181 724 391 710 629 730C938 756 1182 818 1600 768V900H0V760Z" fill="#071E23" fill-opacity="0.7"/>
</svg>
