<svg width="1600" height="900" viewBox="0 0 1600 900" fill="none" xmlns="http://www.w3.org/2000/svg">
  <defs>
    <linearGradient id="bg" x1="0" y1="0" x2="1600" y2="900" gradientUnits="userSpaceOnUse">
      <stop stop-color="#F7F0E1"/>
      <stop offset="0.45" stop-color="#EAD8AE"/>
      <stop offset="1" stop-color="#0D3A38"/>
    </linearGradient>
    <linearGradient id="wall" x1="800" y1="120" x2="800" y2="900" gradientUnits="userSpaceOnUse">
      <stop stop-color="#184A43"/>
      <stop offset="1" stop-color="#0A2C2F"/>
    </linearGradient>
  </defs>
  <rect width="1600" height="900" fill="url(#bg)"/>
  <rect x="0" y="0" width="1600" height="900" fill="url(#wall)" fill-opacity="0.2"/>
  <path d="M130 130H560V620H130V130Z" fill="#F8F3E8" fill-opacity="0.75"/>
  <path d="M1040 130H1470V620H1040V130Z" fill="#0F463F" fill-opacity="0.78"/>
  <path d="M625 85H975V620H625V85Z" fill="#164D47" fill-opacity="0.88"/>
  <path d="M130 130C130 54 190 0 268 0H422C500 0 560 54 560 130H130Z" fill="#F8F3E8" fill-opacity="0.75"/>
  <path d="M625 85C625 18 679 0 741 0H859C921 0 975 18 975 85H625Z" fill="#164D47" fill-opacity="0.88"/>
  <path d="M1040 130C1040 54 1100 0 1178 0H1332C1410 0 1470 54 1470 130H1040Z" fill="#0F463F" fill-opacity="0.78"/>
  <path d="M220 182H470V520H220V182Z" fill="#E7D3A6"/>
  <path d="M720 132H878V540H720V132Z" fill="#1D6157"/>
  <path d="M1130 182H1380V540H1130V182Z" fill="#155249"/>
  <path d="M220 520C350 468 420 462 470 520V620H220V520Z" fill="#D5BA80"/>
  <path d="M720 540C790 490 820 490 878 540V620H720V540Z" fill="#0B3735"/>
  <path d="M1130 540C1225 478 1320 486 1380 540V620H1130V540Z" fill="#0B3735"/>
  <path d="M0 652H1600V900H0V652Z" fill="#7B5A39" fill-opacity="0.22"/>
  <rect x="274" y="532" width="1052" height="242" rx="28" fill="#3B2A20"/>
  <rect x="314" y="560" width="972" height="182" rx="22" fill="#4B3427"/>
  <rect x="346" y="592" width="190" height="104" rx="16" fill="#E8DAB5"/>
  <rect x="562" y="582" width="144" height="124" rx="18" fill="#C5963F"/>
  <rect x="726" y="596" width="102" height="96" rx="18" fill="#ECE2CB"/>
  <rect x="854" y="572" width="184" height="136" rx="18" fill="#14564B"/>
  <rect x="1064" y="592" width="188" height="106" rx="18" fill="#D6B06A"/>
  <g opacity="0.95">
    <ellipse cx="432" cy="696" rx="64" ry="18" fill="#814C29"/>
    <ellipse cx="610" cy="720" rx="54" ry="16" fill="#7E4D24"/>
    <ellipse cx="922" cy="716" rx="84" ry="20" fill="#6E3F21"/>
    <ellipse cx="1160" cy="716" rx="72" ry="18" fill="#835126"/>
    <ellipse cx="1262" cy="670" rx="46" ry="14" fill="#75431F"/>
  </g>
  <g opacity="0.95">
    <circle cx="432" cy="684" r="18" fill="#AA3B1C"/>
    <circle cx="464" cy="676" r="14" fill="#C74A1D"/>
    <circle cx="494" cy="686" r="16" fill="#D8A22E"/>
    <circle cx="590" cy="710" r="16" fill="#D49E34"/>
    <circle cx="620" cy="706" r="14" fill="#847D2F"/>
    <circle cx="652" cy="712" r="13" fill="#4F7F4F"/>
    <circle cx="900" cy="704" r="18" fill="#9B3A1F"/>
    <circle cx="938" cy="706" r="18" fill="#B55323"/>
    <circle cx="972" cy="700" r="16" fill="#C96A22"/>
    <circle cx="1140" cy="706" r="18" fill="#D9B54B"/>
    <circle cx="1180" cy="706" r="16" fill="#B5A142"/>
  </g>
  <rect x="866" y="408" width="160" height="98" rx="18" fill="#14564B"/>
  <rect x="888" y="428" width="116" height="58" rx="10" fill="#F1DFC0"/>
  <path d="M938 430V486" stroke="#C5963F" stroke-width="10" stroke-linecap="round"/>
  <path d="M910 458H968" stroke="#C5963F" stroke-width="10" stroke-linecap="round"/>
  <path d="M248 210H442" stroke="#C6A15C" stroke-width="10" stroke-linecap="round"/>
  <path d="M1158 210H1352" stroke="#D7B36A" stroke-width="10" stroke-linecap="round"/>
</svg>
