<svg width="760" height="150" viewBox="0 0 760 150" fill="none" xmlns="http://www.w3.org/2000/svg">
  <g transform="translate(10 18)">
    <path
      d="M18 22H102V38H76V102C76 116 65 128 48 128C35 128 23 122 12 110L24 97C31 105 39 109 46 109C56 109 61 103 61 94V38H18V22Z"
      fill="#123F66"
    />
    <path
      d="M95 22H177V38H150V126H133V38H95V22Z"
      fill="#0F8A5F"
    />
    <path
      d="M126 126H109V80C109 50 125 30 159 22L163 36C139 43 126 57 126 80V126Z"
      fill="#0F8A5F"
    />
    <path
      d="M79 18L87 30H101L91 38L95 51L79 43L63 51L67 38L57 30H71L79 18Z"
      fill="none"
      stroke="#B9964A"
      stroke-width="4"
      stroke-linejoin="round"
    />
  </g>
  <g transform="translate(225 24)">
    <text
      x="0"
      y="52"
      fill="#123F49"
      font-family="Arial, Helvetica, sans-serif"
      font-size="44"
      font-weight="800"
      letter-spacing="1"
    >
      JIBALA TRADING
    </text>
    <path d="M0 88c88 7 171 5 257 0 77-4 151-4 229 0" stroke="#0F8A5F" stroke-width="6" fill="none" stroke-linecap="round"/>
    <path d="M0 98c96 7 185 5 275 0 76-4 148-4 223 0" stroke="#123F66" stroke-width="5" fill="none" stroke-linecap="round"/>
    <path d="M0 108c104 7 196 5 287 0 74-4 144-4 215 0" stroke="#B9964A" stroke-width="4" fill="none" stroke-linecap="round"/>
    <path d="M0 118c112 7 206 5 298 0 72-4 139-4 207 0" stroke="#D9CDB2" stroke-width="3" fill="none" stroke-linecap="round"/>
  </g>
</svg>
