<svg width="180" height="140" viewBox="0 0 180 140" fill="none" xmlns="http://www.w3.org/2000/svg">
  <path
    d="M18 22H102V38H76V102C76 116 65 128 48 128C35 128 23 122 12 110L24 97C31 105 39 109 46 109C56 109 61 103 61 94V38H18V22Z"
    fill="#123F66"
  />
  <path
    d="M95 22H177V38H150V126H133V38H95V22Z"
    fill="#0F8A5F"
  />
  <path
    d="M126 126H109V80C109 50 125 30 159 22L163 36C139 43 126 57 126 80V126Z"
    fill="#0F8A5F"
  />
  <path
    d="M79 18L87 30H101L91 38L95 51L79 43L63 51L67 38L57 30H71L79 18Z"
    fill="none"
    stroke="#B9964A"
    stroke-width="4"
    stroke-linejoin="round"
  />
</svg>
