<svg width="760" height="150" viewBox="0 0 760 150" fill="none" xmlns="http://www.w3.org/2000/svg">
  <!-- Icono MT para fondo claro: azul profundo + rojo China + dorado -->
  <g transform="translate(20 22)">
    <!-- M azul -->
    <path
      d="M8 108V14H32L50 52L68 14H92V108H72V53L52 92H48L28 53V108H8Z"
      fill="#0B1B33"
    />
    <!-- T rojo -->
    <path
      d="M112 14H166V34H144V108H134H122V34H112V14Z"
      fill="#B91C1C"
    />
    <!-- Estrella dorada sobre la unión MT -->
    <g transform="translate(128 -6)">
      <path
        d="M18 0L21 11H32L23 17L26 28L18 22L10 28L13 17L4 11H15L18 0Z"
        fill="#D4A017"
      />
    </g>
  </g>

  <!-- Wordmark MusheTrading -->
  <g transform="translate(240 24)">
    <text
      x="0"
      y="52"
      fill="#111827"
      font-family="Arial, Helvetica, sans-serif"
      font-size="44"
      font-weight="800"
      letter-spacing="1"
    >
      MUSHETRADING
    </text>
    <!-- Bandas comerciales con colores China -->
    <path d="M0 88c88 7 171 5 257 0 77-4 151-4 229 0" stroke="#B91C1C" stroke-width="6" fill="none" stroke-linecap="round"/>
    <path d="M0 98c96 7 185 5 275 0 76-4 148-4 223 0" stroke="#0B1B33" stroke-width="5" fill="none" stroke-linecap="round"/>
    <path d="M0 108c104 7 196 5 287 0 74-4 144-4 215 0" stroke="#D4A017" stroke-width="4" fill="none" stroke-linecap="round"/>
    <path d="M0 118c112 7 206 5 298 0 72-4 139-4 207 0" stroke="#F5D8A0" stroke-width="3" fill="none" stroke-linecap="round"/>
  </g>
</svg>
