<svg width="760" height="150" viewBox="0 0 760 150" fill="none" xmlns="http://www.w3.org/2000/svg">
  <!-- Icono MT para fondo oscuro: tonos claros para contraste -->
  <g transform="translate(20 22)">
    <!-- M clara -->
    <path
      d="M8 108V14H32L50 52L68 14H92V108H72V53L52 92H48L28 53V108H8Z"
      fill="#E5E7EB"
    />
    <!-- T roja clara -->
    <path
      d="M112 14H166V34H144V108H134H122V34H112V14Z"
      fill="#F97373"
    />
    <!-- Estrella dorada suave -->
    <g transform="translate(128 -6)">
      <path
        d="M18 0L21 11H32L23 17L26 28L18 22L10 28L13 17L4 11H15L18 0Z"
        fill="#FACC6B"
      />
    </g>
  </g>

  <!-- Wordmark blanco + bandas en colores China -->
  <g transform="translate(240 24)">
    <text
      x="0"
      y="52"
      fill="#FFFFFF"
      font-family="Arial, Helvetica, sans-serif"
      font-size="44"
      font-weight="800"
      letter-spacing="1"
    >
      MUSHE TRADING
    </text>
    <path d="M0 88c88 7 171 5 257 0 77-4 151-4 229 0" stroke="#F97373" stroke-width="6" fill="none" stroke-linecap="round"/>
    <path d="M0 98c96 7 185 5 275 0 76-4 148-4 223 0" stroke="#E5E7EB" stroke-width="5" fill="none" stroke-linecap="round"/>
    <path d="M0 108c104 7 196 5 287 0 74-4 144-4 215 0" stroke="#FACC6B" stroke-width="4" fill="none" stroke-linecap="round"/>
    <path d="M0 118c112 7 206 5 298 0 72-4 139-4 207 0" stroke="#FDE7C7" stroke-width="3" fill="none" stroke-linecap="round"/>
  </g>
</svg>
